<?xml version="1.0" encoding="UTF-8"?>
<!DOCTYPE svg PUBLIC "-//W3C//DTD SVG 1.1//EN" "http://www.w3.org/Graphics/SVG/1.1/DTD/svg11.dtd">
<svg xmlns="http://www.w3.org/2000/svg" version="1.1" width="512px" height="512px" style="shape-rendering:geometricPrecision; text-rendering:geometricPrecision; image-rendering:optimizeQuality; fill-rule:evenodd; clip-rule:evenodd" xmlns:xlink="http://www.w3.org/1999/xlink">
<g><path style="opacity:0.997" fill="#ee4e57" d="M 111.5,-0.5 C 116.167,-0.5 120.833,-0.5 125.5,-0.5C 130.182,1.60895 134.349,4.60895 138,8.5C 140.608,13.3968 143.441,18.0635 146.5,22.5C 181.807,86.45 218.14,149.783 255.5,212.5C 257.664,217.5 260.331,222.167 263.5,226.5C 266.647,233.461 270.313,240.127 274.5,246.5C 277.167,251.167 279.833,255.833 282.5,260.5C 295.432,282.698 308.098,305.032 320.5,327.5C 317.001,329.75 313.335,331.75 309.5,333.5C 248.774,229.06 188.274,124.393 128,19.5C 120.854,12.3779 114.52,13.0446 109,21.5C 108.245,24.3033 108.578,26.9699 110,29.5C 171.029,134.228 231.529,239.228 291.5,344.5C 287.728,346.934 283.728,348.934 279.5,350.5C 272.253,336.333 264.253,322.666 255.5,309.5C 253.336,304.5 250.669,299.833 247.5,295.5C 244.255,288.004 240.255,281.004 235.5,274.5C 233.434,270.034 231.1,265.701 228.5,261.5C 187.909,189.973 146.576,118.973 104.5,48.5C 101.076,42.6535 97.9097,36.6535 95,30.5C 92.1465,15.5328 97.6465,5.19942 111.5,-0.5 Z"/></g>
<g><path style="opacity:0.999" fill="#584495" d="M 232.5,-0.5 C 247.833,-0.5 263.167,-0.5 278.5,-0.5C 308.236,2.76905 336.903,10.4357 364.5,22.5C 364.509,24.3084 364.009,25.9751 363,27.5C 331.236,82.0308 299.736,136.697 268.5,191.5C 263.916,198.332 259.583,205.332 255.5,212.5C 218.14,149.783 181.807,86.45 146.5,22.5C 174.097,10.4357 202.764,2.76905 232.5,-0.5 Z"/></g>
<g><path style="opacity:0.995" fill="#48a3ee" d="M 385.5,-0.5 C 390.167,-0.5 394.833,-0.5 399.5,-0.5C 413.354,5.19942 418.854,15.5328 416,30.5C 413.09,36.6535 409.924,42.6535 406.5,48.5C 373.248,104.669 340.248,161.002 307.5,217.5C 302.115,219.842 296.449,221.009 290.5,221C 285.517,229.817 280.184,238.317 274.5,246.5C 270.313,240.127 266.647,233.461 263.5,226.5C 266.492,220.517 269.492,214.517 272.5,208.5C 269.145,203.356 267.812,197.69 268.5,191.5C 299.736,136.697 331.236,82.0308 363,27.5C 364.009,25.9751 364.509,24.3084 364.5,22.5C 367.559,18.0635 370.392,13.3968 373,8.5C 376.651,4.60895 380.818,1.60895 385.5,-0.5 Z"/></g>
<g><path style="opacity:1" fill="#f27154" d="M 309.5,333.5 C 306.039,336.069 302.372,338.403 298.5,340.5C 296.004,341.58 293.67,342.914 291.5,344.5C 231.529,239.228 171.029,134.228 110,29.5C 108.578,26.9699 108.245,24.3033 109,21.5C 114.52,13.0446 120.854,12.3779 128,19.5C 188.274,124.393 248.774,229.06 309.5,333.5 Z"/></g>
<g><path style="opacity:1" fill="#84cff8" d="M 387.5,14.5 C 399.362,13.8597 403.529,19.193 400,30.5C 363.581,93.0033 327.414,155.67 291.5,218.5C 283.583,218.87 277.583,215.537 273.5,208.5C 309,146.833 344.5,85.1667 380,23.5C 381.642,19.6997 384.142,16.6997 387.5,14.5 Z"/></g>
<g><path style="opacity:0.999" fill="#584496" d="M 104.5,48.5 C 146.576,118.973 187.909,189.973 228.5,261.5C 215.248,283.001 202.248,304.668 189.5,326.5C 178.666,324.832 173.833,329.499 175,340.5C 176.442,342.391 177.609,344.391 178.5,346.5C 175.5,351.833 172.5,357.167 169.5,362.5C 162.952,359.893 156.619,356.726 150.5,353C 134.882,351.95 128.382,359.117 131,374.5C 134.884,380.359 140.05,384.692 146.5,387.5C 143.642,393.234 140.309,398.567 136.5,403.5C 131.166,400.725 125.499,399.891 119.5,401C 117.416,401.697 115.749,402.864 114.5,404.5C 109.816,408.781 108.316,414.115 110,420.5C 111.629,425.962 115.129,429.628 120.5,431.5C 115.336,441.833 109.669,451.833 103.5,461.5C 52.4392,423.774 19.6058,373.774 5,311.5C 2.74641,300.424 0.913081,289.424 -0.5,278.5C -0.5,263.167 -0.5,247.833 -0.5,232.5C 8.12927,155.885 43.1293,94.552 104.5,48.5 Z"/></g>
<g><path style="opacity:0.999" fill="#584496" d="M 406.5,48.5 C 467.87,94.5509 502.87,155.884 511.5,232.5C 511.5,247.833 511.5,263.167 511.5,278.5C 504.116,346.435 475.116,403.268 424.5,449C 418.937,453.409 413.271,457.576 407.5,461.5C 401.331,451.833 395.664,441.833 390.5,431.5C 398.538,427.764 402.205,421.431 401.5,412.5C 399.199,404.54 393.866,400.207 385.5,399.5C 381.492,400.057 377.826,401.39 374.5,403.5C 370.691,398.567 367.358,393.234 364.5,387.5C 367.663,385.084 370.996,382.918 374.5,381C 381.455,373.835 382.288,366.001 377,357.5C 372.338,352.98 366.838,351.48 360.5,353C 354.381,356.726 348.048,359.893 341.5,362.5C 338.404,356.633 335.071,350.967 331.5,345.5C 336.49,341.414 337.657,336.414 335,330.5C 330.863,326.458 326.03,325.458 320.5,327.5C 308.098,305.032 295.432,282.698 282.5,260.5C 291.587,246.666 299.921,232.333 307.5,217.5C 340.248,161.002 373.248,104.669 406.5,48.5 Z"/></g>
<g><path style="opacity:1" fill="#5290dc" d="M 268.5,191.5 C 267.812,197.69 269.145,203.356 272.5,208.5C 269.492,214.517 266.492,220.517 263.5,226.5C 260.331,222.167 257.664,217.5 255.5,212.5C 259.583,205.332 263.916,198.332 268.5,191.5 Z"/></g>
<g><path style="opacity:1" fill="#5190dc" d="M 307.5,217.5 C 299.921,232.333 291.587,246.666 282.5,260.5C 279.833,255.833 277.167,251.167 274.5,246.5C 280.184,238.317 285.517,229.817 290.5,221C 296.449,221.009 302.115,219.842 307.5,217.5 Z"/></g>
<g><path style="opacity:1" fill="#5090dd" d="M 228.5,261.5 C 231.1,265.701 233.434,270.034 235.5,274.5C 223.412,293.669 212.079,313.335 201.5,333.5C 197.164,331.668 193.164,329.335 189.5,326.5C 202.248,304.668 215.248,283.001 228.5,261.5 Z"/></g>
<g><path style="opacity:1" fill="#4aa4ee" d="M 235.5,274.5 C 240.255,281.004 244.255,288.004 247.5,295.5C 237.917,311.663 228.584,327.996 219.5,344.5C 215.833,342.5 212.167,340.5 208.5,338.5C 206.343,336.588 204.009,334.921 201.5,333.5C 212.079,313.335 223.412,293.669 235.5,274.5 Z"/></g>
<g><path style="opacity:1" fill="#5190dd" d="M 247.5,295.5 C 250.669,299.833 253.336,304.5 255.5,309.5C 246.998,323.166 238.998,337.166 231.5,351.5C 227.5,349.167 223.5,346.833 219.5,344.5C 228.584,327.996 237.917,311.663 247.5,295.5 Z"/></g>
<g><path style="opacity:0.999" fill="#584496" d="M 255.5,309.5 C 264.253,322.666 272.253,336.333 279.5,350.5C 272.165,358.319 273.165,364.819 282.5,370C 285.221,370.602 287.887,370.435 290.5,369.5C 293.581,375.331 296.915,380.998 300.5,386.5C 293.979,390.686 287.479,395.019 281,399.5C 275.583,408.331 276.749,416.164 284.5,423C 289.683,425.815 295.016,426.148 300.5,424C 303.706,421.966 307.04,420.133 310.5,418.5C 324.253,441.67 337.753,465.003 351,488.5C 351.908,490.439 353.408,491.439 355.5,491.5C 330.835,502.083 305.168,508.75 278.5,511.5C 263.167,511.5 247.833,511.5 232.5,511.5C 205.832,508.75 180.165,502.083 155.5,491.5C 157.592,491.439 159.092,490.439 160,488.5C 173.174,464.81 186.841,441.476 201,418.5C 206.135,421.821 211.635,424.154 217.5,425.5C 227.383,424.449 232.717,418.949 233.5,409C 232.921,404.841 231.254,401.175 228.5,398C 222.266,394.392 216.266,390.559 210.5,386.5C 213.833,380.833 217.167,375.167 220.5,369.5C 231.695,371.472 236.528,366.805 235,355.5C 234.34,353.676 233.173,352.343 231.5,351.5C 238.998,337.166 246.998,323.166 255.5,309.5 Z"/></g>
<g><path style="opacity:1" fill="#b4b1be" d="M 189.5,326.5 C 193.164,329.335 197.164,331.668 201.5,333.5C 204.009,334.921 206.343,336.588 208.5,338.5C 204.452,338.441 201.285,340.108 199,343.5C 197.62,347.492 197.12,351.492 197.5,355.5C 191.669,352.419 186.002,349.085 180.5,345.5C 179.817,345.863 179.15,346.196 178.5,346.5C 177.609,344.391 176.442,342.391 175,340.5C 173.833,329.499 178.666,324.832 189.5,326.5 Z"/></g>
<g><path style="opacity:1" fill="#b4b1bd" d="M 298.5,340.5 C 295.987,349.521 299.32,355.354 308.5,358C 302.266,361.608 296.266,365.441 290.5,369.5C 287.887,370.435 285.221,370.602 282.5,370C 273.165,364.819 272.165,358.319 279.5,350.5C 283.728,348.934 287.728,346.934 291.5,344.5C 293.67,342.914 296.004,341.58 298.5,340.5 Z"/></g>
<g><path style="opacity:1" fill="#ebeceb" d="M 331.5,345.5 C 335.071,350.967 338.404,356.633 341.5,362.5C 341.631,363.376 341.298,364.043 340.5,364.5C 334.086,367.789 327.919,371.456 322,375.5C 317.817,369.462 314.484,363.128 312,356.5C 318.406,352.577 324.906,348.911 331.5,345.5 Z"/></g>
<g><path style="opacity:1" fill="#d0cfd5" d="M 331.5,345.5 C 324.906,348.911 318.406,352.577 312,356.5C 314.484,363.128 317.817,369.462 322,375.5C 327.919,371.456 334.086,367.789 340.5,364.5C 341.298,364.043 341.631,363.376 341.5,362.5C 348.048,359.893 354.381,356.726 360.5,353C 366.838,351.48 372.338,352.98 377,357.5C 382.288,366.001 381.455,373.835 374.5,381C 370.996,382.918 367.663,385.084 364.5,387.5C 367.358,393.234 370.691,398.567 374.5,403.5C 376.387,408.941 379.053,413.941 382.5,418.5C 384.429,423.372 387.095,427.705 390.5,431.5C 395.664,441.833 401.331,451.833 407.5,461.5C 400.196,467.823 392.196,473.156 383.5,477.5C 380.708,477.548 378.875,476.215 378,473.5C 364.667,450.167 351.333,426.833 338,403.5C 326.401,403.075 319.568,397.075 317.5,385.5C 317.808,382.408 318.808,379.575 320.5,377C 313.762,379.868 307.095,383.034 300.5,386.5C 296.915,380.998 293.581,375.331 290.5,369.5C 296.266,365.441 302.266,361.608 308.5,358C 299.32,355.354 295.987,349.521 298.5,340.5C 302.372,338.403 306.039,336.069 309.5,333.5C 313.335,331.75 317.001,329.75 320.5,327.5C 326.03,325.458 330.863,326.458 335,330.5C 337.657,336.414 336.49,341.414 331.5,345.5 Z"/></g>
<g><path style="opacity:1" fill="#eaecec" d="M 220.5,369.5 C 217.167,375.167 213.833,380.833 210.5,386.5C 203.181,383.371 196.181,379.537 189.5,375C 192.046,371.41 194.213,367.577 196,363.5C 197.216,361.032 198.883,359.032 201,357.5C 207.798,361.143 214.298,365.143 220.5,369.5 Z"/></g>
<g><path style="opacity:1" fill="#d0ced5" d="M 208.5,338.5 C 212.167,340.5 215.833,342.5 219.5,344.5C 223.5,346.833 227.5,349.167 231.5,351.5C 233.173,352.343 234.34,353.676 235,355.5C 236.528,366.805 231.695,371.472 220.5,369.5C 214.298,365.143 207.798,361.143 201,357.5C 198.883,359.032 197.216,361.032 196,363.5C 194.213,367.577 192.046,371.41 189.5,375C 196.181,379.537 203.181,383.371 210.5,386.5C 216.266,390.559 222.266,394.392 228.5,398C 231.254,401.175 232.921,404.841 233.5,409C 232.717,418.949 227.383,424.449 217.5,425.5C 211.635,424.154 206.135,421.821 201,418.5C 186.841,441.476 173.174,464.81 160,488.5C 159.092,490.439 157.592,491.439 155.5,491.5C 146.903,488.535 138.903,484.535 131.5,479.5C 130.314,477.806 130.481,476.139 132,474.5C 146.086,450.663 159.919,426.663 173.5,402.5C 167.405,390.978 170.072,382.144 181.5,376C 183.833,375.667 186.167,375.333 188.5,375C 181.694,371.283 175.36,367.116 169.5,362.5C 172.5,357.167 175.5,351.833 178.5,346.5C 179.15,346.196 179.817,345.863 180.5,345.5C 186.002,349.085 191.669,352.419 197.5,355.5C 197.12,351.492 197.62,347.492 199,343.5C 201.285,340.108 204.452,338.441 208.5,338.5 Z"/></g>
<g><path style="opacity:1" fill="#b4b1bd" d="M 383.5,477.5 C 374.763,483.202 365.43,487.868 355.5,491.5C 353.408,491.439 351.908,490.439 351,488.5C 337.753,465.003 324.253,441.67 310.5,418.5C 307.04,420.133 303.706,421.966 300.5,424C 295.016,426.148 289.683,425.815 284.5,423C 276.749,416.164 275.583,408.331 281,399.5C 287.479,395.019 293.979,390.686 300.5,386.5C 307.095,383.034 313.762,379.868 320.5,377C 318.808,379.575 317.808,382.408 317.5,385.5C 319.568,397.075 326.401,403.075 338,403.5C 351.333,426.833 364.667,450.167 378,473.5C 378.875,476.215 380.708,477.548 383.5,477.5 Z"/></g>
<g><path style="opacity:1" fill="#b4b1be" d="M 169.5,362.5 C 175.36,367.116 181.694,371.283 188.5,375C 186.167,375.333 183.833,375.667 181.5,376C 170.072,382.144 167.405,390.978 173.5,402.5C 159.919,426.663 146.086,450.663 132,474.5C 130.481,476.139 130.314,477.806 131.5,479.5C 121.356,474.675 112.022,468.675 103.5,461.5C 109.669,451.833 115.336,441.833 120.5,431.5C 123.916,427.677 126.582,423.343 128.5,418.5C 131.947,413.941 134.613,408.941 136.5,403.5C 140.309,398.567 143.642,393.234 146.5,387.5C 140.05,384.692 134.884,380.359 131,374.5C 128.382,359.117 134.882,351.95 150.5,353C 156.619,356.726 162.952,359.893 169.5,362.5 Z"/></g>
<g><path style="opacity:1" fill="#49a2ed" d="M 136.5,403.5 C 134.613,408.941 131.947,413.941 128.5,418.5C 121.478,416.144 116.811,411.478 114.5,404.5C 115.749,402.864 117.416,401.697 119.5,401C 125.499,399.891 131.166,400.725 136.5,403.5 Z"/></g>
<g><path style="opacity:1" fill="#db4453" d="M 401.5,412.5 C 393.845,410.658 387.512,412.658 382.5,418.5C 379.053,413.941 376.387,408.941 374.5,403.5C 377.826,401.39 381.492,400.057 385.5,399.5C 393.866,400.207 399.199,404.54 401.5,412.5 Z"/></g>
<g><path style="opacity:1" fill="#5090dd" d="M 114.5,404.5 C 116.811,411.478 121.478,416.144 128.5,418.5C 126.582,423.343 123.916,427.677 120.5,431.5C 115.129,429.628 111.629,425.962 110,420.5C 108.316,414.115 109.816,408.781 114.5,404.5 Z"/></g>
<g><path style="opacity:1" fill="#ed4e58" d="M 401.5,412.5 C 402.205,421.431 398.538,427.764 390.5,431.5C 387.095,427.705 384.429,423.372 382.5,418.5C 387.512,412.658 393.845,410.658 401.5,412.5 Z"/></g>
</svg>
