<?xml version="1.0" encoding="UTF-8"?>
<!DOCTYPE svg PUBLIC "-//W3C//DTD SVG 1.1//EN" "http://www.w3.org/Graphics/SVG/1.1/DTD/svg11.dtd">
<svg xmlns="http://www.w3.org/2000/svg" version="1.1" width="512px" height="512px" style="shape-rendering:geometricPrecision; text-rendering:geometricPrecision; image-rendering:optimizeQuality; fill-rule:evenodd; clip-rule:evenodd" xmlns:xlink="http://www.w3.org/1999/xlink">
<g><path style="opacity:0.982" fill="#1d1d1f" d="M 22.5,-0.5 C 29.1667,-0.5 35.8333,-0.5 42.5,-0.5C 113.146,70.8123 184.146,141.812 255.5,212.5C 318.653,149.847 381.653,87.0137 444.5,24C 445.167,23.3333 445.833,23.3333 446.5,24C 448.037,25.7073 449.704,27.2073 451.5,28.5C 453.006,30.7892 454.173,33.1226 455,35.5C 392.333,98.1667 329.667,160.833 267,223.5C 269.131,227.817 272.298,231.484 276.5,234.5C 279.516,238.702 283.183,241.869 287.5,244C 357,174.5 426.5,105 496,35.5C 496.755,30.0501 494.588,26.0501 489.5,23.5C 487.038,20.5361 484.371,17.7028 481.5,15C 479.5,14.3333 477.5,14.3333 475.5,15C 472.667,17.8333 469.833,20.6667 467,23.5C 465.223,21.2101 463.056,19.5434 460.5,18.5C 459.542,17.0384 458.376,15.7051 457,14.5C 456.333,13.5 456.333,12.5 457,11.5C 461.037,7.63104 464.87,3.63104 468.5,-0.5C 475.167,-0.5 481.833,-0.5 488.5,-0.5C 495.833,7.5 503.5,15.1667 511.5,22.5C 511.5,29.1667 511.5,35.8333 511.5,42.5C 440.535,112.965 369.701,183.632 299,254.5C 298.333,255.167 298.333,255.833 299,256.5C 304,261.5 309,266.5 314,271.5C 314.667,272.5 314.667,273.5 314,274.5C 312.624,275.705 311.458,277.038 310.5,278.5C 307.944,279.543 305.777,281.21 304,283.5C 298.319,277.652 292.485,271.985 286.5,266.5C 282.812,269.521 279.479,272.854 276.5,276.5C 272.298,279.516 269.131,283.183 267,287.5C 283.167,303.667 299.333,319.833 315.5,336C 320.153,333.531 324.153,330.031 327.5,325.5C 330.812,322.854 333.812,319.854 336.5,316.5C 329.848,309.348 323.015,302.348 316,295.5C 315.333,294.5 315.333,293.5 316,292.5C 317.376,291.295 318.542,289.962 319.5,288.5C 321.296,287.207 322.963,285.707 324.5,284C 325.167,283.333 325.833,283.333 326.5,284C 333.348,291.015 340.348,297.848 347.5,304.5C 349.65,302.851 351.65,301.018 353.5,299C 354.167,298.333 354.833,298.333 355.5,299C 365.333,308.833 375.167,318.667 385,328.5C 385.667,329.5 385.667,330.5 385,331.5C 382.065,333.727 380.065,336.394 379,339.5C 381,341.5 383,343.5 385,345.5C 387.719,342.078 390.886,339.578 394.5,338C 404,347.5 413.5,357 423,366.5C 422.573,369.121 421.073,371.121 418.5,372.5C 416.519,374.144 414.519,375.81 412.5,377.5C 410.814,376.143 409.148,374.81 407.5,373.5C 403.188,368.521 398.521,363.854 393.5,359.5C 382.181,370.319 371.014,381.319 360,392.5C 359.333,393.167 359.333,393.833 360,394.5C 388.5,423 417,451.5 445.5,480C 451.158,476.523 456.158,472.023 460.5,466.5C 467.479,460.188 474.146,453.521 480.5,446.5C 461.847,427.347 443.014,408.347 424,389.5C 423.333,388.833 423.333,388.167 424,387.5C 425.707,385.963 427.207,384.296 428.5,382.5C 430.463,381.04 432.296,379.373 434,377.5C 456.667,400.167 479.333,422.833 502,445.5C 501.454,448.093 499.954,450.26 497.5,452C 502.035,456.703 506.702,461.203 511.5,465.5C 511.5,470.833 511.5,476.167 511.5,481.5C 501.167,491.167 491.167,501.167 481.5,511.5C 476.167,511.5 470.833,511.5 465.5,511.5C 461.203,506.702 456.703,502.035 452,497.5C 450.26,499.954 448.093,501.454 445.5,502C 430.833,487.333 416.167,472.667 401.5,458C 396.35,460.805 392.016,464.805 388.5,470C 387.833,470.667 387.167,470.667 386.5,470C 374,457.5 361.5,445 349,432.5C 348.333,431.833 348.333,431.167 349,430.5C 353.167,426.333 357.333,422.167 361.5,418C 353.319,409.986 345.319,401.819 337.5,393.5C 339.984,390.516 342.65,387.682 345.5,385C 343.317,382.65 340.984,380.483 338.5,378.5C 336.016,380.483 333.683,382.65 331.5,385C 330.5,385.667 329.5,385.667 328.5,385C 318.667,375.167 308.833,365.333 299,355.5C 300.667,352.5 302.333,349.5 304,346.5C 288.167,330.667 272.333,314.833 256.5,299C 255.833,298.333 255.167,298.333 254.5,299C 249.5,304 244.5,309 239.5,314C 238.5,314.667 237.5,314.667 236.5,314C 235.295,312.624 233.962,311.458 232.5,310.5C 231.457,307.944 229.79,305.777 227.5,304C 233.348,298.319 239.015,292.485 244.5,286.5C 241.479,282.812 238.146,279.479 234.5,276.5C 231.484,272.298 227.817,269.131 223.5,267C 207.333,283.167 191.167,299.333 175,315.5C 180.464,323.143 186.964,330.143 194.5,336.5C 198.521,333.146 202.188,329.479 205.5,325.5C 209.147,322.189 212.813,318.855 216.5,315.5C 218.264,317.278 220.264,318.611 222.5,319.5C 223.793,321.296 225.293,322.963 227,324.5C 227.667,325.167 227.667,325.833 227,326.5C 219.985,333.348 213.152,340.348 206.5,347.5C 208.149,349.65 209.982,351.65 212,353.5C 212.667,354.167 212.667,354.833 212,355.5C 202.167,365.333 192.333,375.167 182.5,385C 181.5,385.667 180.5,385.667 179.5,385C 177.273,382.065 174.606,380.065 171.5,379C 169.5,381 167.5,383 165.5,385C 168.922,387.719 171.422,390.886 173,394.5C 163.5,404 154,413.5 144.5,423C 141.879,422.573 139.879,421.073 138.5,418.5C 137.207,416.704 135.707,415.037 134,413.5C 133.333,412.833 133.333,412.167 134,411.5C 140.015,405.652 145.848,399.652 151.5,393.5C 144.146,385.479 136.479,377.812 128.5,370.5C 125.153,365.969 121.153,362.469 116.5,360C 88,388.5 59.5,417 31,445.5C 30.3333,446.167 30.3333,446.833 31,447.5C 41.8333,458.333 52.6667,469.167 63.5,480C 67.8172,477.869 71.4838,474.702 74.5,470.5C 90.2986,455.202 105.965,439.702 121.5,424C 122.167,423.333 122.833,423.333 123.5,424C 125.037,425.707 126.704,427.207 128.5,428.5C 131.073,429.879 132.573,431.879 133,434.5C 110.5,457 88,479.5 65.5,502C 62.9067,501.454 60.7401,499.954 59,497.5C 54.2967,502.035 49.7967,506.702 45.5,511.5C 40.1667,511.5 34.8333,511.5 29.5,511.5C 19.8333,501.167 9.83333,491.167 -0.5,481.5C -0.5,476.167 -0.5,470.833 -0.5,465.5C 4.29788,461.203 8.96455,456.703 13.5,452C 11.0465,450.26 9.54649,448.093 9,445.5C 23.6667,430.833 38.3333,416.167 53,401.5C 50.1951,396.35 46.1951,392.016 41,388.5C 40.3333,387.833 40.3333,387.167 41,386.5C 53.5,374 66,361.5 78.5,349C 79.1667,348.333 79.8333,348.333 80.5,349C 84.6667,353.167 88.8333,357.333 93,361.5C 101.014,353.319 109.181,345.319 117.5,337.5C 120.484,339.984 123.318,342.65 126,345.5C 128.35,343.317 130.517,340.984 132.5,338.5C 130.517,336.016 128.35,333.683 126,331.5C 125.333,330.5 125.333,329.5 126,328.5C 135.833,318.667 145.667,308.833 155.5,299C 158.5,300.667 161.5,302.333 164.5,304C 180.681,287.986 196.681,271.819 212.5,255.5C 149.847,192.347 87.0137,129.347 24,66.5C 23.3333,65.8333 23.3333,65.1667 24,64.5C 25.7073,62.9625 27.2073,61.2959 28.5,59.5C 29.9616,58.5423 31.2949,57.3756 32.5,56C 33.5,55.3333 34.5,55.3333 35.5,56C 98.1667,118.667 160.833,181.333 223.5,244C 227.817,241.869 231.484,238.702 234.5,234.5C 238.702,231.484 241.869,227.817 244,223.5C 177.299,156.632 110.465,89.9653 43.5,23.5C 41.0381,20.5361 38.3714,17.7028 35.5,15C 33.5,14.3333 31.5,14.3333 29.5,15C 24.6667,19.8333 19.8333,24.6667 15,29.5C 14.3333,31.5 14.3333,33.5 15,35.5C 17.8333,38.3333 20.6667,41.1667 23.5,44C 21.2101,45.7772 19.5434,47.9438 18.5,50.5C 17.0384,51.4577 15.7051,52.6244 14.5,54C 13.5,54.6667 12.5,54.6667 11.5,54C 7.63104,49.963 3.63104,46.1296 -0.5,42.5C -0.5,35.8333 -0.5,29.1667 -0.5,22.5C 7.5,15.1667 15.1667,7.5 22.5,-0.5 Z"/></g>
<g><path style="opacity:1" fill="#ad2f64" d="M 43.5,23.5 C 41.629,23.8588 40.129,24.8588 39,26.5C 38.3333,30.5 38.3333,34.5 39,38.5C 49.4201,49.4237 60.2534,59.757 71.5,69.5C 69.7059,71.7966 67.7059,73.9633 65.5,76C 103.833,114.333 142.167,152.667 180.5,191C 181.167,191.667 181.833,191.667 182.5,191C 184.037,189.293 185.704,187.793 187.5,186.5C 189.5,188.833 191.5,191.167 193.5,193.5C 192.04,195.463 190.373,197.296 188.5,199C 192,202.5 195.5,206 199,209.5C 200.704,207.627 202.537,205.96 204.5,204.5C 206.833,206.5 209.167,208.5 211.5,210.5C 209.856,212.481 208.19,214.481 206.5,216.5C 209.317,219.818 212.317,222.985 215.5,226C 216.5,226.667 217.5,226.667 218.5,226C 220.3,224.188 221.967,222.355 223.5,220.5C 223.351,221.552 223.517,222.552 224,223.5C 227.704,227.036 231.204,230.702 234.5,234.5C 231.484,238.702 227.817,241.869 223.5,244C 160.833,181.333 98.1667,118.667 35.5,56C 34.5,55.3333 33.5,55.3333 32.5,56C 31.2949,57.3756 29.9616,58.5423 28.5,59.5C 25.1667,56.5 21.8333,53.5 18.5,50.5C 19.5434,47.9438 21.2101,45.7772 23.5,44C 20.6667,41.1667 17.8333,38.3333 15,35.5C 14.3333,33.5 14.3333,31.5 15,29.5C 19.8333,24.6667 24.6667,19.8333 29.5,15C 31.5,14.3333 33.5,14.3333 35.5,15C 38.3714,17.7028 41.0381,20.5361 43.5,23.5 Z"/></g>
<g><path style="opacity:1" fill="#05d7bb" d="M 489.5,23.5 C 488.761,23.369 488.094,23.5357 487.5,24C 465.632,46.035 443.632,67.8683 421.5,89.5C 419.537,88.0401 417.704,86.3734 416,84.5C 412.5,88 409,91.5 405.5,95C 407.373,96.7038 409.04,98.5372 410.5,100.5C 408.5,102.833 406.5,105.167 404.5,107.5C 402.704,106.207 401.037,104.707 399.5,103C 395.203,105.108 391.536,108.275 388.5,112.5C 390.19,114.519 391.856,116.519 393.5,118.5C 391.167,120.5 388.833,122.5 386.5,124.5C 384.537,123.04 382.704,121.373 381,119.5C 355,145.5 329,171.5 303,197.5C 302.333,198.167 302.333,198.833 303,199.5C 304.376,200.705 305.542,202.038 306.5,203.5C 297.221,214.447 287.221,224.78 276.5,234.5C 272.298,231.484 269.131,227.817 267,223.5C 329.667,160.833 392.333,98.1667 455,35.5C 454.173,33.1226 453.006,30.7892 451.5,28.5C 454.5,25.1667 457.5,21.8333 460.5,18.5C 463.056,19.5434 465.223,21.2101 467,23.5C 469.833,20.6667 472.667,17.8333 475.5,15C 477.5,14.3333 479.5,14.3333 481.5,15C 484.371,17.7028 487.038,20.5361 489.5,23.5 Z"/></g>
<g><path style="opacity:1" fill="#f63f7f" d="M 43.5,23.5 C 110.465,89.9653 177.299,156.632 244,223.5C 241.869,227.817 238.702,231.484 234.5,234.5C 231.204,230.702 227.704,227.036 224,223.5C 223.517,222.552 223.351,221.552 223.5,220.5C 224.476,219.185 225.476,217.852 226.5,216.5C 223.464,212.275 219.797,209.108 215.5,207C 214.295,208.376 212.962,209.542 211.5,210.5C 209.167,208.5 206.833,206.5 204.5,204.5C 202.537,205.96 200.704,207.627 199,209.5C 195.5,206 192,202.5 188.5,199C 190.373,197.296 192.04,195.463 193.5,193.5C 191.5,191.167 189.5,188.833 187.5,186.5C 188.458,185.038 189.624,183.705 191,182.5C 191.667,181.833 191.667,181.167 191,180.5C 152.667,142.167 114.333,103.833 76,65.5C 74.6288,67.0414 73.1288,68.3747 71.5,69.5C 60.2534,59.757 49.4201,49.4237 39,38.5C 38.3333,34.5 38.3333,30.5 39,26.5C 40.129,24.8588 41.629,23.8588 43.5,23.5 Z"/></g>
<g><path style="opacity:1" fill="#07f7ef" d="M 489.5,23.5 C 494.588,26.0501 496.755,30.0501 496,35.5C 426.5,105 357,174.5 287.5,244C 283.183,241.869 279.516,238.702 276.5,234.5C 287.221,224.78 297.221,214.447 306.5,203.5C 308.296,204.793 309.963,206.293 311.5,208C 312.167,208.667 312.833,208.667 313.5,208C 339,182.5 364.5,157 390,131.5C 390.667,130.5 390.667,129.5 390,128.5C 388.624,127.295 387.458,125.962 386.5,124.5C 388.833,122.5 391.167,120.5 393.5,118.5C 394.962,119.458 396.295,120.624 397.5,122C 401.797,119.892 405.464,116.725 408.5,112.5C 407.143,110.814 405.81,109.148 404.5,107.5C 406.5,105.167 408.5,102.833 410.5,100.5C 411.962,101.458 413.295,102.624 414.5,104C 415.5,104.667 416.5,104.667 417.5,104C 420.5,101 423.5,98 426.5,95C 424.627,93.2962 422.96,91.4628 421.5,89.5C 443.632,67.8683 465.632,46.035 487.5,24C 488.094,23.5357 488.761,23.369 489.5,23.5 Z"/></g>
<g><path style="opacity:1" fill="#fefdfd" d="M 187.5,186.5 C 185.704,187.793 184.037,189.293 182.5,191C 181.833,191.667 181.167,191.667 180.5,191C 142.167,152.667 103.833,114.333 65.5,76C 67.7059,73.9633 69.7059,71.7966 71.5,69.5C 73.1288,68.3747 74.6288,67.0414 76,65.5C 114.333,103.833 152.667,142.167 191,180.5C 191.667,181.167 191.667,181.833 191,182.5C 189.624,183.705 188.458,185.038 187.5,186.5 Z"/></g>
<g><path style="opacity:1" fill="#fafefe" d="M 421.5,89.5 C 422.96,91.4628 424.627,93.2962 426.5,95C 423.5,98 420.5,101 417.5,104C 416.5,104.667 415.5,104.667 414.5,104C 413.295,102.624 411.962,101.458 410.5,100.5C 409.04,98.5372 407.373,96.7038 405.5,95C 409,91.5 412.5,88 416,84.5C 417.704,86.3734 419.537,88.0401 421.5,89.5 Z"/></g>
<g><path style="opacity:1" fill="#fbfefe" d="M 404.5,107.5 C 405.81,109.148 407.143,110.814 408.5,112.5C 405.464,116.725 401.797,119.892 397.5,122C 396.295,120.624 394.962,119.458 393.5,118.5C 391.856,116.519 390.19,114.519 388.5,112.5C 391.536,108.275 395.203,105.108 399.5,103C 401.037,104.707 402.704,106.207 404.5,107.5 Z"/></g>
<g><path style="opacity:1" fill="#fcfefe" d="M 386.5,124.5 C 387.458,125.962 388.624,127.295 390,128.5C 390.667,129.5 390.667,130.5 390,131.5C 364.5,157 339,182.5 313.5,208C 312.833,208.667 312.167,208.667 311.5,208C 309.963,206.293 308.296,204.793 306.5,203.5C 305.542,202.038 304.376,200.705 303,199.5C 302.333,198.833 302.333,198.167 303,197.5C 329,171.5 355,145.5 381,119.5C 382.704,121.373 384.537,123.04 386.5,124.5 Z"/></g>
<g><path style="opacity:0.886" fill="#1d1d1e" d="M 203.5,121.5 C 207.631,125.13 211.631,128.963 215.5,133C 211.954,136.882 208.121,140.382 204,143.5C 199.833,140.667 196.333,137.167 193.5,133C 196.656,129.011 199.989,125.177 203.5,121.5 Z"/></g>
<g><path style="opacity:0.9" fill="#1c1c1d" d="M 220.5,139.5 C 225.085,142.414 229.085,146.08 232.5,150.5C 229.167,154.5 225.5,158.167 221.5,161.5C 217.5,158.167 213.833,154.5 210.5,150.5C 213.855,146.813 217.189,143.147 220.5,139.5 Z"/></g>
<g><path style="opacity:0.924" fill="#1c1c1f" d="M 238.5,157.5 C 243.085,160.414 247.085,164.08 250.5,168.5C 247.167,172.5 243.5,176.167 239.5,179.5C 235.5,176.167 231.833,172.5 228.5,168.5C 231.855,164.813 235.189,161.147 238.5,157.5 Z"/></g>
<g><path style="opacity:1" fill="#fefbfc" d="M 204.5,204.5 C 202.537,205.96 200.704,207.627 199,209.5C 195.5,206 192,202.5 188.5,199C 190.373,197.296 192.04,195.463 193.5,193.5C 195.463,192.04 197.296,190.373 199,188.5C 202.5,192 206,195.5 209.5,199C 207.627,200.704 205.96,202.537 204.5,204.5 Z"/></g>
<g><path style="opacity:0.953" fill="#1d1d1f" d="M 379.5,190.5 C 384.085,193.414 388.085,197.08 391.5,201.5C 388.167,205.5 384.5,209.167 380.5,212.5C 376.5,209.167 372.833,205.5 369.5,201.5C 372.855,197.813 376.189,194.147 379.5,190.5 Z"/></g>
<g><path style="opacity:1" fill="#fdf9fa" d="M 223.5,220.5 C 221.967,222.355 220.3,224.188 218.5,226C 217.5,226.667 216.5,226.667 215.5,226C 212.317,222.985 209.317,219.818 206.5,216.5C 208.19,214.481 209.856,212.481 211.5,210.5C 212.962,209.542 214.295,208.376 215.5,207C 219.797,209.108 223.464,212.275 226.5,216.5C 225.476,217.852 224.476,219.185 223.5,220.5 Z"/></g>
<g><path style="opacity:0.937" fill="#1c1c1e" d="M 362.5,207.5 C 366.677,210.844 370.344,214.677 373.5,219C 370.382,223.121 366.882,226.954 363,230.5C 359.167,226.667 355.333,222.833 351.5,219C 355.37,215.298 359.037,211.464 362.5,207.5 Z"/></g>
<g><path style="opacity:0.956" fill="#1d1d1f" d="M 344.5,225.5 C 348.677,228.844 352.344,232.677 355.5,237C 352.667,241.167 349.167,244.667 345,247.5C 340.879,244.382 337.046,240.882 333.5,237C 337.37,233.298 341.037,229.464 344.5,225.5 Z"/></g>
<g><path style="opacity:1" fill="#b9d5eb" d="M 266.5,264.5 C 265.761,264.631 265.094,264.464 264.5,264C 257.904,257.91 251.904,251.41 246.5,244.5C 249.186,240.627 252.519,237.794 256.5,236C 263.015,242.348 269.348,248.848 275.5,255.5C 272.812,258.854 269.812,261.854 266.5,264.5 Z"/></g>
<g><path style="opacity:0.937" fill="#1d1d1f" d="M 326.5,243.5 C 331.085,246.414 335.085,250.08 338.5,254.5C 335.167,258.5 331.5,262.167 327.5,265.5C 323.5,262.167 319.833,258.5 316.5,254.5C 319.855,250.813 323.189,247.147 326.5,243.5 Z"/></g>
<g><path style="opacity:1" fill="#8fbee3" d="M 246.5,244.5 C 251.904,251.41 257.904,257.91 264.5,264C 265.094,264.464 265.761,264.631 266.5,264.5C 263.153,269.031 259.153,272.531 254.5,275C 247.985,268.652 241.652,262.152 235.5,255.5C 238.854,251.479 242.521,247.812 246.5,244.5 Z"/></g>
<g><path style="opacity:1" fill="#01d7bb" d="M 234.5,276.5 C 221.869,289.632 209.035,302.632 196,315.5C 195.333,316.167 195.333,316.833 196,317.5C 198.766,320.777 201.933,323.443 205.5,325.5C 202.188,329.479 198.521,333.146 194.5,336.5C 186.964,330.143 180.464,323.143 175,315.5C 191.167,299.333 207.333,283.167 223.5,267C 227.817,269.131 231.484,272.298 234.5,276.5 Z"/></g>
<g><path style="opacity:0.993" fill="#f93d7f" d="M 310.5,278.5 C 313.5,281.833 316.5,285.167 319.5,288.5C 318.542,289.962 317.376,291.295 316,292.5C 315.333,293.5 315.333,294.5 316,295.5C 323.015,302.348 329.848,309.348 336.5,316.5C 333.812,319.854 330.812,322.854 327.5,325.5C 326.761,325.631 326.094,325.464 325.5,325C 309.299,308.632 292.965,292.465 276.5,276.5C 279.479,272.854 282.812,269.521 286.5,266.5C 292.485,271.985 298.319,277.652 304,283.5C 305.777,281.21 307.944,279.543 310.5,278.5 Z"/></g>
<g><path style="opacity:1" fill="#ac2d63" d="M 276.5,276.5 C 292.965,292.465 309.299,308.632 325.5,325C 326.094,325.464 326.761,325.631 327.5,325.5C 324.153,330.031 320.153,333.531 315.5,336C 299.333,319.833 283.167,303.667 267,287.5C 269.131,283.183 272.298,279.516 276.5,276.5 Z"/></g>
<g><path style="opacity:0.99" fill="#01faf2" d="M 234.5,276.5 C 238.146,279.479 241.479,282.812 244.5,286.5C 239.015,292.485 233.348,298.319 227.5,304C 229.79,305.777 231.457,307.944 232.5,310.5C 229.167,313.5 225.833,316.5 222.5,319.5C 220.264,318.611 218.264,317.278 216.5,315.5C 212.813,318.855 209.147,322.189 205.5,325.5C 201.933,323.443 198.766,320.777 196,317.5C 195.333,316.833 195.333,316.167 196,315.5C 209.035,302.632 221.869,289.632 234.5,276.5 Z"/></g>
<g><path style="opacity:1" fill="#91c0e5" d="M 161.5,325.5 C 159.114,326.373 157.114,327.873 155.5,330C 165.368,340.036 175.368,349.869 185.5,359.5C 184.207,361.296 182.707,362.963 181,364.5C 169.5,353 158,341.5 146.5,330C 149.682,326.651 153.015,323.484 156.5,320.5C 158.521,321.855 160.188,323.521 161.5,325.5 Z"/></g>
<g><path style="opacity:1" fill="#90c0e5" d="M 358.5,324.5 C 348.535,333.964 338.702,343.631 329,353.5C 329.519,356.526 331.352,358.526 334.5,359.5C 333.207,361.296 331.707,362.963 330,364.5C 327,361.5 324,358.5 321,355.5C 320.333,354.833 320.333,354.167 321,353.5C 331.833,342.667 342.667,331.833 353.5,321C 355.772,321.077 357.438,322.243 358.5,324.5 Z"/></g>
<g><path style="opacity:1" fill="#bdd9f0" d="M 161.5,325.5 C 171.132,334.631 180.632,343.964 190,353.5C 189.573,356.121 188.073,358.121 185.5,359.5C 175.368,349.869 165.368,340.036 155.5,330C 157.114,327.873 159.114,326.373 161.5,325.5 Z"/></g>
<g><path style="opacity:1" fill="#bad7ee" d="M 358.5,324.5 C 360.63,326.127 362.63,327.96 364.5,330C 354.632,340.036 344.632,349.869 334.5,359.5C 331.352,358.526 329.519,356.526 329,353.5C 338.702,343.631 348.535,333.964 358.5,324.5 Z"/></g>
<g><path style="opacity:1" fill="#f19e33" d="M 146.5,351.5 C 145.542,352.962 144.376,354.295 143,355.5C 142.333,356.5 142.333,357.5 143,358.5C 147.768,362.76 151.934,367.427 155.5,372.5C 154.749,373.573 153.749,373.74 152.5,373C 147.667,368.167 142.833,363.333 138,358.5C 137.333,357.5 137.333,356.5 138,355.5C 139.833,353.667 141.667,351.833 143.5,350C 144.998,349.415 145.998,349.915 146.5,351.5 Z"/></g>
<g><path style="opacity:1" fill="#f3d353" d="M 368.5,351.5 C 364.767,356.74 360.434,361.574 355.5,366C 357.037,367.707 358.704,369.207 360.5,370.5C 359.594,372.914 357.928,373.747 355.5,373C 353.316,370.984 351.316,368.817 349.5,366.5C 354.652,360.848 359.985,355.348 365.5,350C 366.998,349.415 367.998,349.915 368.5,351.5 Z"/></g>
<g><path style="opacity:1" fill="#f8bd73" d="M 146.5,351.5 C 151.812,356.146 156.812,361.146 161.5,366.5C 159.812,368.854 157.812,370.854 155.5,372.5C 151.934,367.427 147.768,362.76 143,358.5C 142.333,357.5 142.333,356.5 143,355.5C 144.376,354.295 145.542,352.962 146.5,351.5 Z"/></g>
<g><path style="opacity:1" fill="#f7e392" d="M 368.5,351.5 C 371.532,352.999 373.032,355.332 373,358.5C 368.964,362.704 364.798,366.704 360.5,370.5C 358.704,369.207 357.037,367.707 355.5,366C 360.434,361.574 364.767,356.74 368.5,351.5 Z"/></g>
<g><path style="opacity:1" fill="#94c4ea" d="M 128.5,370.5 C 124.897,372.763 121.564,375.43 118.5,378.5C 117.399,377.2 116.066,376.7 114.5,377C 111.667,379.833 108.833,382.667 106,385.5C 105.7,387.066 106.2,388.399 107.5,389.5C 105.5,391.833 103.5,394.167 101.5,396.5C 100.206,395.71 99.0391,394.71 98,393.5C 94.5,397 91,400.5 87.5,404C 88.3805,404.708 89.0472,405.542 89.5,406.5C 88.1667,409.833 85.8333,412.167 82.5,413.5C 81.5416,413.047 80.7083,412.381 80,411.5C 68.8333,422.667 57.6667,433.833 46.5,445C 49.7025,448.371 53.0359,451.538 56.5,454.5C 62.7486,459.407 68.7486,464.74 74.5,470.5C 71.4838,474.702 67.8172,477.869 63.5,480C 52.6667,469.167 41.8333,458.333 31,447.5C 30.3333,446.833 30.3333,446.167 31,445.5C 59.5,417 88,388.5 116.5,360C 121.153,362.469 125.153,365.969 128.5,370.5 Z"/></g>
<g><path style="opacity:1" fill="#92c3e9" d="M 407.5,373.5 C 399.909,379.421 392.909,386.088 386.5,393.5C 391.854,399.521 397.521,405.188 403.5,410.5C 401.706,412.797 399.706,414.963 397.5,417C 401,420.5 404.5,424 408,427.5C 410.037,425.294 412.203,423.294 414.5,421.5C 416.5,423.833 418.5,426.167 420.5,428.5C 418.856,430.481 417.19,432.481 415.5,434.5C 418.317,437.818 421.317,440.985 424.5,444C 425.5,444.667 426.5,444.667 427.5,444C 429.3,442.188 430.967,440.355 432.5,438.5C 433.833,441.833 436.167,444.167 439.5,445.5C 437.873,447.63 436.04,449.63 434,451.5C 436.108,455.797 439.275,459.464 443.5,462.5C 445.519,460.81 447.519,459.144 449.5,457.5C 452.895,460.902 456.562,463.902 460.5,466.5C 456.158,472.023 451.158,476.523 445.5,480C 417,451.5 388.5,423 360,394.5C 359.333,393.833 359.333,393.167 360,392.5C 371.014,381.319 382.181,370.319 393.5,359.5C 398.521,363.854 403.188,368.521 407.5,373.5 Z"/></g>
<g><path style="opacity:0.998" fill="#bfdcf3" d="M 128.5,370.5 C 136.479,377.812 144.146,385.479 151.5,393.5C 145.848,399.652 140.015,405.652 134,411.5C 133.333,412.167 133.333,412.833 134,413.5C 135.707,415.037 137.207,416.704 138.5,418.5C 134.833,421.5 131.5,424.833 128.5,428.5C 126.704,427.207 125.037,425.707 123.5,424C 122.833,423.333 122.167,423.333 121.5,424C 105.965,439.702 90.2986,455.202 74.5,470.5C 68.7486,464.74 62.7486,459.407 56.5,454.5C 68.4269,444.242 79.7602,433.242 90.5,421.5C 87.4789,419.146 84.8123,416.479 82.5,413.5C 85.8333,412.167 88.1667,409.833 89.5,406.5C 92.4877,409.349 95.4877,411.849 98.5,414C 101.833,410.667 105.167,407.333 108.5,404C 105.961,401.63 103.628,399.13 101.5,396.5C 103.5,394.167 105.5,391.833 107.5,389.5C 109.963,391.461 112.297,393.628 114.5,396C 118.797,393.892 122.464,390.725 125.5,386.5C 123.144,383.814 120.811,381.147 118.5,378.5C 121.564,375.43 124.897,372.763 128.5,370.5 Z"/></g>
<g><path style="opacity:1" fill="#f3d352" d="M 78.5,370.5 C 81.0764,370.722 81.9098,372.055 81,374.5C 76.1667,379.333 71.3333,384.167 66.5,389C 64.7991,389.345 63.4658,388.678 62.5,387C 68.0363,381.631 73.3697,376.131 78.5,370.5 Z"/></g>
<g><path style="opacity:0.998" fill="#bfdcf3" d="M 418.5,372.5 C 421.5,376.167 424.833,379.5 428.5,382.5C 427.207,384.296 425.707,385.963 424,387.5C 423.333,388.167 423.333,388.833 424,389.5C 443.014,408.347 461.847,427.347 480.5,446.5C 474.146,453.521 467.479,460.188 460.5,466.5C 456.562,463.902 452.895,460.902 449.5,457.5C 450.458,456.038 451.624,454.705 453,453.5C 450.892,449.203 447.725,445.536 443.5,442.5C 442.148,443.524 440.815,444.524 439.5,445.5C 436.167,444.167 433.833,441.833 432.5,438.5C 434.914,437.594 435.747,435.928 435,433.5C 432.167,430.667 429.333,427.833 426.5,425C 425.833,424.333 425.167,424.333 424.5,425C 423.295,426.376 421.962,427.542 420.5,428.5C 418.5,426.167 416.5,423.833 414.5,421.5C 415.625,419.871 416.959,418.371 418.5,417C 415,413.5 411.5,410 408,406.5C 406.629,408.041 405.129,409.375 403.5,410.5C 397.521,405.188 391.854,399.521 386.5,393.5C 392.909,386.088 399.909,379.421 407.5,373.5C 409.148,374.81 410.814,376.143 412.5,377.5C 414.519,375.81 416.519,374.144 418.5,372.5 Z"/></g>
<g><path style="opacity:1" fill="#fdfefe" d="M 118.5,378.5 C 120.811,381.147 123.144,383.814 125.5,386.5C 122.464,390.725 118.797,393.892 114.5,396C 112.297,393.628 109.963,391.461 107.5,389.5C 106.2,388.399 105.7,387.066 106,385.5C 108.833,382.667 111.667,379.833 114.5,377C 116.066,376.7 117.399,377.2 118.5,378.5 Z"/></g>
<g><path style="opacity:1" fill="#fdfefe" d="M 101.5,396.5 C 103.628,399.13 105.961,401.63 108.5,404C 105.167,407.333 101.833,410.667 98.5,414C 95.4877,411.849 92.4877,409.349 89.5,406.5C 89.0472,405.542 88.3805,404.708 87.5,404C 91,400.5 94.5,397 98,393.5C 99.0391,394.71 100.206,395.71 101.5,396.5 Z"/></g>
<g><path style="opacity:1" fill="#1f2022" d="M 414.5,421.5 C 412.203,423.294 410.037,425.294 408,427.5C 404.5,424 401,420.5 397.5,417C 399.706,414.963 401.706,412.797 403.5,410.5C 405.129,409.375 406.629,408.041 408,406.5C 411.5,410 415,413.5 418.5,417C 416.959,418.371 415.625,419.871 414.5,421.5 Z"/></g>
<g><path style="opacity:1" fill="#fdfefe" d="M 82.5,413.5 C 84.8123,416.479 87.4789,419.146 90.5,421.5C 79.7602,433.242 68.4269,444.242 56.5,454.5C 53.0359,451.538 49.7025,448.371 46.5,445C 57.6667,433.833 68.8333,422.667 80,411.5C 80.7083,412.381 81.5416,413.047 82.5,413.5 Z"/></g>
<g><path style="opacity:1" fill="#222326" d="M 432.5,438.5 C 430.967,440.355 429.3,442.188 427.5,444C 426.5,444.667 425.5,444.667 424.5,444C 421.317,440.985 418.317,437.818 415.5,434.5C 417.19,432.481 418.856,430.481 420.5,428.5C 421.962,427.542 423.295,426.376 424.5,425C 425.167,424.333 425.833,424.333 426.5,425C 429.333,427.833 432.167,430.667 435,433.5C 435.747,435.928 434.914,437.594 432.5,438.5 Z"/></g>
<g><path style="opacity:1" fill="#f49f31" d="M 371.5,429.5 C 372.552,429.351 373.552,429.517 374.5,430C 379.333,434.833 384.167,439.667 389,444.5C 389.345,446.201 388.678,447.534 387,448.5C 381.667,443.167 376.333,437.833 371,432.5C 370.53,431.423 370.697,430.423 371.5,429.5 Z"/></g>
<g><path style="opacity:1" fill="#1f2022" d="M 449.5,457.5 C 447.519,459.144 445.519,460.81 443.5,462.5C 439.275,459.464 436.108,455.797 434,451.5C 436.04,449.63 437.873,447.63 439.5,445.5C 440.815,444.524 442.148,443.524 443.5,442.5C 447.725,445.536 450.892,449.203 453,453.5C 451.624,454.705 450.458,456.038 449.5,457.5 Z"/></g>
<g><path style="opacity:1" fill="#f6a134" d="M 26.5,464.5 C 25.9688,466.544 24.8022,468.211 23,469.5C 22.3333,472.167 22.3333,474.833 23,477.5C 28.7029,483.035 34.2029,488.702 39.5,494.5C 38.9976,496.085 37.9976,496.585 36.5,496C 28.9854,488.652 21.6521,481.152 14.5,473.5C 17.8176,469.682 21.3176,466.015 25,462.5C 25.7172,463.044 26.2172,463.711 26.5,464.5 Z"/></g>
<g><path style="opacity:1" fill="#f4d456" d="M 488.5,465.5 C 482.762,472.744 476.428,479.577 469.5,486C 472.039,488.37 474.372,490.87 476.5,493.5C 475.746,495.446 474.412,496.279 472.5,496C 469.167,492.667 465.833,489.333 462.5,486C 470.333,478.167 478.167,470.333 486,462.5C 487.045,463.373 487.878,464.373 488.5,465.5 Z"/></g>
<g><path style="opacity:1" fill="#f9be74" d="M 26.5,464.5 C 33.9649,471.464 41.2982,478.631 48.5,486C 45.6306,489.038 42.6306,491.871 39.5,494.5C 34.2029,488.702 28.7029,483.035 23,477.5C 22.3333,474.833 22.3333,472.167 23,469.5C 24.8022,468.211 25.9688,466.544 26.5,464.5 Z"/></g>
<g><path style="opacity:1" fill="#fbe796" d="M 488.5,465.5 C 491.479,467.812 494.146,470.479 496.5,473.5C 490.146,480.521 483.479,487.188 476.5,493.5C 474.372,490.87 472.039,488.37 469.5,486C 476.428,479.577 482.762,472.744 488.5,465.5 Z"/></g>
</svg>
